<svg width="325" height="122" viewBox="0 0 325 122" fill="none" xmlns="http://www.w3.org/2000/svg">
<g clip-path="url(#clip0_1205_731)">
<path d="M274.475 22.1833C280.969 22.1833 286.242 27.4561 286.242 33.9502V91.7791C286.242 98.2732 280.969 103.546 274.475 103.546H43.5477C21.1201 103.546 2.87348 85.2994 2.87348 62.8718C2.87348 40.4443 21.1201 22.1833 43.5477 22.1833H274.461M274.475 19.3098H43.5477C19.5397 19.3098 0 38.8495 0 62.8575C0 86.8654 19.5397 106.405 43.5477 106.405H274.461C282.535 106.405 289.101 99.8392 289.101 91.7647V33.9502C289.101 25.8757 282.535 19.3098 274.461 19.3098H274.475Z" fill="#F5382C"/>
<path d="M43.5468 100.658H274.46C279.374 100.658 283.353 96.6785 283.353 91.7648V33.9503C283.353 29.0367 279.374 25.0569 274.46 25.0569H43.5468C22.6709 25.0569 5.74609 41.9817 5.74609 62.8576C5.74609 83.7334 22.6709 100.658 43.5468 100.658Z" fill="#F5382C"/>
<path d="M264.029 118.546C232.133 118.546 206.186 92.5981 206.186 60.7024C206.186 28.8067 232.147 2.87354 264.029 2.87354C295.91 2.87354 321.872 28.8211 321.872 60.7168C321.872 92.6124 295.924 118.56 264.029 118.56V118.546Z" fill="white"/>
<path d="M264.029 5.74697C294.33 5.74697 318.999 30.4015 318.999 60.7167C318.999 91.032 294.344 115.686 264.029 115.686C233.714 115.686 209.059 91.032 209.059 60.7167C209.059 30.4015 233.728 5.74697 264.029 5.74697ZM264.029 0C230.496 0 203.312 27.1832 203.312 60.7167C203.312 94.2503 230.496 121.433 264.029 121.433C297.563 121.433 324.746 94.2503 324.746 60.7167C324.746 27.1832 297.563 0 264.029 0Z" fill="#F5382C"/>
<path d="M35.1426 43.7918C36.7231 42.039 39.0649 41.1482 42.1539 41.1482C45.2429 41.1482 47.5848 42.0246 49.1652 43.7918C50.7457 45.5446 51.5359 48.0733 51.5359 51.3491V52.6278H45.5016V50.9468C45.5016 49.5531 45.2286 48.5474 44.6826 47.9009C44.1366 47.2687 43.3464 46.9383 42.312 46.9383C41.2775 46.9383 40.473 47.2543 39.9414 47.9009C39.3954 48.533 39.1368 49.5531 39.1368 50.9468C39.1368 52.6421 39.5965 54.1363 40.5017 55.415C41.4068 56.6937 42.7717 58.1449 44.582 59.7684C46.0906 61.162 47.3118 62.3832 48.2314 63.4464C49.1652 64.5096 49.9555 65.7883 50.602 67.2969C51.2629 68.8055 51.5933 70.5296 51.5933 72.4548C51.5933 75.7449 50.7888 78.2592 49.1652 80.0121C47.5417 81.7649 45.1855 82.6413 42.0965 82.6413C39.0075 82.6413 36.6512 81.7649 35.0277 80.0121C33.4042 78.2592 32.5996 75.7306 32.5996 72.4548V69.9692H38.6339V72.8715C38.6339 75.5007 39.7402 76.8081 41.9384 76.8081C44.1366 76.8081 45.2429 75.5007 45.2429 72.8715C45.2429 71.1761 44.7832 69.6819 43.878 68.4032C42.9729 67.1245 41.608 65.6734 39.7977 64.0499C38.2891 62.6562 37.0679 61.435 36.1484 60.3718C35.2288 59.3086 34.4243 58.0299 33.7777 56.5213C33.1312 55.0128 32.7864 53.2887 32.7864 51.3634C32.7864 48.0733 33.5766 45.559 35.157 43.8062L35.1426 43.7918Z" fill="white"/>
<path d="M73.734 72.4548C73.734 75.745 72.9294 78.2593 71.3059 80.0121C69.6824 81.7649 67.3261 82.6413 64.2371 82.6413C61.1481 82.6413 58.7919 81.7649 57.1683 80.0121C55.5448 78.2593 54.7402 75.7306 54.7402 72.4548V51.3635C54.7402 48.0733 55.5448 45.559 57.1683 43.8062C58.7919 42.0534 61.1481 41.1626 64.2371 41.1626C67.3261 41.1626 69.6824 42.039 71.3059 43.8062C72.9294 45.559 73.734 48.0877 73.734 51.3635V55.3001H67.6996V50.9468C67.6996 48.2745 66.5934 46.9527 64.3951 46.9527C62.1969 46.9527 61.0906 48.2888 61.0906 50.9468V72.8571C61.0906 75.4864 62.1969 76.7938 64.3951 76.7938C66.5934 76.7938 67.6996 75.4864 67.6996 72.8571V67.0671H73.734V72.4548Z" fill="white"/>
<path d="M91.822 82.1815L90.7157 74.8254H82.8855L81.7792 82.1815H75.9316L82.4257 41.6079H91.7502L98.2442 82.1815H91.8076H91.822ZM89.8537 69.3227L86.779 48.806L83.7044 69.3227H89.8537Z" fill="white"/>
<path d="M106.893 82.1815H101.16V41.6079H109.163L115.714 65.8889V41.6079H121.389V82.1815H114.838L106.893 52.8001V82.1815Z" fill="white"/>
<path d="M152.798 41.6223H161.662V82.1959H155.628V53.1019L151.217 82.1959H145.183L140.427 53.5042V82.1959H134.867V41.6223H143.732L148.43 70.429L152.783 41.6223H152.798Z" fill="white"/>
<path d="M181.417 58.7195V64.5096H172.668V76.3914H183.687V82.1815H166.303V41.6079H183.687V47.398H172.668V58.7051H181.417V58.7195Z" fill="white"/>
<path d="M187.625 58.5471V41.6223H194.004V58.5471L193.2 73.2163H188.444L187.625 58.5471ZM193.889 82.1815H187.74V76.0323H193.889V82.1815Z" fill="white"/>
</g>
<defs>
<clipPath id="clip0_1205_731">
<rect width="324.747" height="121.419" fill="white"/>
</clipPath>
</defs>
</svg>
